<?plantuml 1.2026.2beta3?><svg xmlns="http://www.w3.org/2000/svg" xmlns:xlink="http://www.w3.org/1999/xlink" contentStyleType="text/css" data-diagram-type="CLASS" height="505px" preserveAspectRatio="none" style="width:1154px;height:505px;background:#1B1B1B;" version="1.1" viewBox="0 0 1154 505" width="1154px" zoomAndPan="magnify"><defs/><g><rect fill="#1B1B1B" height="505" style="stroke:none;stroke-width:1;" width="1154" x="0" y="0"/><!--class channels--><g class="entity" data-qualified-name="channels" data-source-line="4" id="ent0002"><rect fill="#313139" height="74.8906" rx="2.5" ry="2.5" style="stroke:#E7E7E7;stroke-width:0.5;" width="222.6494" x="7" y="182.63"/><text fill="#FFFFFF" font-family="sans-serif" font-size="14" lengthAdjust="spacing" textLength="69.9997" x="83.3249" y="200.6251">&#12481;&#12515;&#12531;&#12493;&#12523;</text><line style="stroke:#E7E7E7;stroke-width:0.5;" x1="8" x2="228.6494" y1="208.9269" y2="208.9269"/><g data-visibility-modifier="IE_MANDATORY"><ellipse cx="18" cy="222.5753" fill="#000000" rx="3" ry="3" style="stroke:#000000;stroke-width:1;"/></g><text fill="#FFFFFF" font-family="sans-serif" font-size="14" lengthAdjust="spacing" textLength="196.6494" x="27" y="225.922">channel_id : bigint(20) &#171;PK&#187;</text><line style="stroke:#E7E7E7;stroke-width:1;" x1="8" x2="228.6494" y1="233.2238" y2="233.2238"/><text fill="#FFFFFF" font-family="sans-serif" font-size="14" lengthAdjust="spacing" textLength="206.8896" x="13" y="250.2189">channel_name : varchar(255)</text></g><!--class program_slots--><g class="entity" data-qualified-name="program_slots" data-source-line="10" id="ent0003"><rect fill="#313139" height="107.4844" rx="2.5" ry="2.5" style="stroke:#E7E7E7;stroke-width:0.5;" width="259.5566" x="149.55" y="366.41"/><text fill="#FFFFFF" font-family="sans-serif" font-size="14" lengthAdjust="spacing" textLength="41.9998" x="258.3284" y="384.4051">&#30058;&#32068;&#26528;</text><line style="stroke:#E7E7E7;stroke-width:0.5;" x1="150.55" x2="408.1066" y1="392.7069" y2="392.7069"/><g data-visibility-modifier="IE_MANDATORY"><ellipse cx="160.55" cy="406.3553" fill="#000000" rx="3" ry="3" style="stroke:#000000;stroke-width:1;"/></g><text fill="#FFFFFF" font-family="sans-serif" font-size="14" lengthAdjust="spacing" textLength="233.5566" x="169.55" y="409.702">program_slot_id : bigint(20) &#171;PK&#187;</text><line style="stroke:#E7E7E7;stroke-width:1;" x1="150.55" x2="408.1066" y1="417.0037" y2="417.0037"/><text fill="#FFFFFF" font-family="sans-serif" font-size="14" lengthAdjust="spacing" textLength="130.4912" x="155.55" y="433.9989">start_at : datetime</text><text fill="#FFFFFF" font-family="sans-serif" font-size="14" lengthAdjust="spacing" textLength="124.2568" x="155.55" y="450.2957">end_at : datetime</text><text fill="#FFFFFF" font-family="sans-serif" font-size="14" lengthAdjust="spacing" textLength="196.2598" x="155.55" y="466.5926">channel_id : bigint(20) &#171;FK&#187;</text></g><!--class programs--><g class="entity" data-qualified-name="programs" data-source-line="18" id="ent0004"><rect fill="#313139" height="91.1875" rx="2.5" ry="2.5" style="stroke:#E7E7E7;stroke-width:0.5;" width="227.3184" x="629.67" y="7"/><text fill="#FFFFFF" font-family="sans-serif" font-size="14" lengthAdjust="spacing" textLength="27.9999" x="729.3292" y="24.9951">&#30058;&#32068;</text><line style="stroke:#E7E7E7;stroke-width:0.5;" x1="630.67" x2="855.9884" y1="33.2969" y2="33.2969"/><g data-visibility-modifier="IE_MANDATORY"><ellipse cx="640.67" cy="46.9453" fill="#000000" rx="3" ry="3" style="stroke:#000000;stroke-width:1;"/></g><text fill="#FFFFFF" font-family="sans-serif" font-size="14" lengthAdjust="spacing" textLength="201.3184" x="649.67" y="50.292">program_id : bigint(20) &#171;PK&#187;</text><line style="stroke:#E7E7E7;stroke-width:1;" x1="630.67" x2="855.9884" y1="57.5938" y2="57.5938"/><text fill="#FFFFFF" font-family="sans-serif" font-size="14" lengthAdjust="spacing" textLength="132.1592" x="635.67" y="74.5889">title : varchar(255)</text><text fill="#FFFFFF" font-family="sans-serif" font-size="14" lengthAdjust="spacing" textLength="155.2031" x="635.67" y="90.8857">program_details : text</text></g><!--class seasons--><g class="entity" data-qualified-name="seasons" data-source-line="25" id="ent0005"><rect fill="#313139" height="91.1875" rx="2.5" ry="2.5" style="stroke:#E7E7E7;stroke-width:0.5;" width="216.4697" x="621.09" y="174.48"/><text fill="#FFFFFF" font-family="sans-serif" font-size="14" lengthAdjust="spacing" textLength="55.9998" x="701.325" y="192.4751">&#12471;&#12540;&#12474;&#12531;</text><line style="stroke:#E7E7E7;stroke-width:0.5;" x1="622.09" x2="836.5597" y1="200.7769" y2="200.7769"/><g data-visibility-modifier="IE_MANDATORY"><ellipse cx="632.09" cy="214.4253" fill="#000000" rx="3" ry="3" style="stroke:#000000;stroke-width:1;"/></g><text fill="#FFFFFF" font-family="sans-serif" font-size="14" lengthAdjust="spacing" textLength="190.4697" x="641.09" y="217.772">season_id : bigint(20) &#171;PK&#187;</text><line style="stroke:#E7E7E7;stroke-width:1;" x1="622.09" x2="836.5597" y1="225.0737" y2="225.0737"/><text fill="#FFFFFF" font-family="sans-serif" font-size="14" lengthAdjust="spacing" textLength="81.0879" x="627.09" y="242.0689">season : int</text><text fill="#FFFFFF" font-family="sans-serif" font-size="14" lengthAdjust="spacing" textLength="200.9287" x="627.09" y="258.3657">program_id : bigint(20) &#171;FK&#187;</text></g><!--class episodes--><g class="entity" data-qualified-name="episodes" data-source-line="32" id="ent0006"><rect fill="#313139" height="156.375" rx="2.5" ry="2.5" style="stroke:#E7E7E7;stroke-width:0.5;" width="222" x="459.32" y="341.96"/><text fill="#FFFFFF" font-family="sans-serif" font-size="14" lengthAdjust="spacing" textLength="69.9997" x="535.3202" y="359.9551">&#12456;&#12500;&#12477;&#12540;&#12489;</text><line style="stroke:#E7E7E7;stroke-width:0.5;" x1="460.32" x2="680.32" y1="368.2569" y2="368.2569"/><g data-visibility-modifier="IE_MANDATORY"><ellipse cx="470.32" cy="381.9053" fill="#000000" rx="3" ry="3" style="stroke:#000000;stroke-width:1;"/></g><text fill="#FFFFFF" font-family="sans-serif" font-size="14" lengthAdjust="spacing" textLength="196" x="479.32" y="385.252">episode_id : bigint(20) &#171;PK&#187;</text><line style="stroke:#E7E7E7;stroke-width:1;" x1="460.32" x2="680.32" y1="392.5538" y2="392.5538"/><text fill="#FFFFFF" font-family="sans-serif" font-size="14" lengthAdjust="spacing" textLength="133.1162" x="465.32" y="409.5489">episode_count : int</text><text fill="#FFFFFF" font-family="sans-serif" font-size="14" lengthAdjust="spacing" textLength="132.1592" x="465.32" y="425.8457">title : varchar(255)</text><text fill="#FFFFFF" font-family="sans-serif" font-size="14" lengthAdjust="spacing" textLength="149.8848" x="465.32" y="442.1426">episode_details : text</text><text fill="#FFFFFF" font-family="sans-serif" font-size="14" lengthAdjust="spacing" textLength="149.3994" x="465.32" y="458.4395">video_duration : time</text><text fill="#FFFFFF" font-family="sans-serif" font-size="14" lengthAdjust="spacing" textLength="135.1123" x="465.32" y="474.7364">release_date : date</text><text fill="#FFFFFF" font-family="sans-serif" font-size="14" lengthAdjust="spacing" textLength="190.0801" x="465.32" y="491.0332">season_id : bigint(20) &#171;FK&#187;</text></g><!--class program_slot_episodes--><g class="entity" data-qualified-name="program_slot_episodes" data-source-line="43" id="ent0007"><rect fill="#313139" height="123.7813" rx="2.5" ry="2.5" style="stroke:#E7E7E7;stroke-width:0.5;" width="321.3057" x="264.67" y="158.18"/><text fill="#FFFFFF" font-family="sans-serif" font-size="14" lengthAdjust="spacing" textLength="118.9995" x="365.8231" y="176.1751">&#30058;&#32068;&#26528;_&#12456;&#12500;&#12477;&#12540;&#12489;</text><line style="stroke:#E7E7E7;stroke-width:0.5;" x1="265.67" x2="584.9757" y1="184.4769" y2="184.4769"/><g data-visibility-modifier="IE_MANDATORY"><ellipse cx="275.67" cy="198.1253" fill="#000000" rx="3" ry="3" style="stroke:#000000;stroke-width:1;"/></g><text fill="#FFFFFF" font-family="sans-serif" font-size="14" lengthAdjust="spacing" textLength="295.3057" x="284.67" y="201.472">program_slot_episode_id : bigint(20) &#171;PK&#187;</text><line style="stroke:#E7E7E7;stroke-width:1;" x1="265.67" x2="584.9757" y1="208.7737" y2="208.7737"/><text fill="#FFFFFF" font-family="sans-serif" font-size="14" lengthAdjust="spacing" textLength="224.7861" x="270.67" y="225.7689">broadcast_start_time : datetime</text><text fill="#FFFFFF" font-family="sans-serif" font-size="14" lengthAdjust="spacing" textLength="110.6055" x="270.67" y="242.0657">view_count : int</text><text fill="#FFFFFF" font-family="sans-serif" font-size="14" lengthAdjust="spacing" textLength="233.167" x="270.67" y="258.3626">program_slot_id : bigint(20) &#171;FK&#187;</text><text fill="#FFFFFF" font-family="sans-serif" font-size="14" lengthAdjust="spacing" textLength="195.6104" x="270.67" y="274.6595">episode_id : bigint(20) &#171;FK&#187;</text></g><!--class genres--><g class="entity" data-qualified-name="genres" data-source-line="52" id="ent0008"><rect fill="#313139" height="74.8906" rx="2.5" ry="2.5" style="stroke:#E7E7E7;stroke-width:0.5;" width="207.9932" x="906.33" y="15.14"/><text fill="#FFFFFF" font-family="sans-serif" font-size="14" lengthAdjust="spacing" textLength="55.9998" x="982.3267" y="33.1351">&#12472;&#12515;&#12531;&#12523;</text><line style="stroke:#E7E7E7;stroke-width:0.5;" x1="907.33" x2="1113.3232" y1="41.4369" y2="41.4369"/><g data-visibility-modifier="IE_MANDATORY"><ellipse cx="917.33" cy="55.0853" fill="#000000" rx="3" ry="3" style="stroke:#000000;stroke-width:1;"/></g><text fill="#FFFFFF" font-family="sans-serif" font-size="14" lengthAdjust="spacing" textLength="181.9932" x="926.33" y="58.432">genre_id : bigint(20) &#171;PK&#187;</text><line style="stroke:#E7E7E7;stroke-width:1;" x1="907.33" x2="1113.3232" y1="65.7337" y2="65.7337"/><text fill="#FFFFFF" font-family="sans-serif" font-size="14" lengthAdjust="spacing" textLength="192.2334" x="912.33" y="82.7289">genre_name : varchar(255)</text></g><!--class program_genres--><g class="entity" data-qualified-name="program_genres" data-source-line="58" id="ent0009"><rect fill="#313139" height="91.1875" rx="2.5" ry="2.5" style="stroke:#E7E7E7;stroke-width:0.5;" width="275.0605" x="872.79" y="174.48"/><text fill="#FFFFFF" font-family="sans-serif" font-size="14" lengthAdjust="spacing" textLength="90.9996" x="964.8205" y="192.4751">&#30058;&#32068;_&#12472;&#12515;&#12531;&#12523;</text><line style="stroke:#E7E7E7;stroke-width:0.5;" x1="873.79" x2="1146.8505" y1="200.7769" y2="200.7769"/><g data-visibility-modifier="IE_MANDATORY"><ellipse cx="883.79" cy="214.4253" fill="#000000" rx="3" ry="3" style="stroke:#000000;stroke-width:1;"/></g><text fill="#FFFFFF" font-family="sans-serif" font-size="14" lengthAdjust="spacing" textLength="249.0605" x="892.79" y="217.772">program_genre_id : bigint(20) &#171;PK&#187;</text><line style="stroke:#E7E7E7;stroke-width:1;" x1="873.79" x2="1146.8505" y1="225.0737" y2="225.0737"/><text fill="#FFFFFF" font-family="sans-serif" font-size="14" lengthAdjust="spacing" textLength="200.9287" x="878.79" y="242.0689">program_id : bigint(20) &#171;FK&#187;</text><text fill="#FFFFFF" font-family="sans-serif" font-size="14" lengthAdjust="spacing" textLength="181.6035" x="878.79" y="258.3657">genre_id : bigint(20) &#171;FK&#187;</text></g><!--link channels to program_slots--><g class="link" data-entity-1="ent0002" data-entity-2="ent0003" data-link-type="crowfoot" data-source-line="66" id="lnk10"><path codeLine="66" d="M189.6,265.71 C189.6,296.27 189.6,323.77 189.6,358.07" fill="none" id="channels-program_slots" style="stroke:#E7E7E7;stroke-width:1;"/><line style="stroke:#E7E7E7;stroke-width:1;" x1="185.6" x2="193.6" y1="261.71" y2="261.71"/><line style="stroke:#E7E7E7;stroke-width:1;" x1="185.6" x2="193.6" y1="264.71" y2="264.71"/><line style="stroke:#E7E7E7;stroke-width:1;" x1="189.6" x2="189.6" y1="265.71" y2="257.71"/><line style="stroke:#E7E7E7;stroke-width:1;" x1="189.6" x2="195.6" y1="358.07" y2="366.07"/><line style="stroke:#E7E7E7;stroke-width:1;" x1="189.6" x2="183.6" y1="358.07" y2="366.07"/><line style="stroke:#E7E7E7;stroke-width:1;" x1="189.6" x2="189.6" y1="358.07" y2="366.07"/><line style="stroke:#E7E7E7;stroke-width:1;" x1="193.6" x2="185.6" y1="356.07" y2="356.07"/></g><!--link programs to seasons--><g class="link" data-entity-1="ent0004" data-entity-2="ent0005" data-link-type="crowfoot" data-source-line="68" id="lnk11"><path codeLine="68" d="M733.61,106.36 C733.61,129.89 733.61,142.5 733.61,166.07" fill="none" id="programs-seasons" style="stroke:#E7E7E7;stroke-width:1;"/><line style="stroke:#E7E7E7;stroke-width:1;" x1="729.61" x2="737.61" y1="102.36" y2="102.36"/><line style="stroke:#E7E7E7;stroke-width:1;" x1="729.61" x2="737.61" y1="105.36" y2="105.36"/><line style="stroke:#E7E7E7;stroke-width:1;" x1="733.61" x2="733.61" y1="106.36" y2="98.36"/><line style="stroke:#E7E7E7;stroke-width:1;" x1="733.61" x2="739.61" y1="166.07" y2="174.07"/><line style="stroke:#E7E7E7;stroke-width:1;" x1="733.61" x2="727.61" y1="166.07" y2="174.07"/><line style="stroke:#E7E7E7;stroke-width:1;" x1="733.61" x2="733.61" y1="166.07" y2="174.07"/><line style="stroke:#E7E7E7;stroke-width:1;" x1="737.61" x2="729.61" y1="164.07" y2="164.07"/></g><!--link seasons to episodes--><g class="link" data-entity-1="ent0005" data-entity-2="ent0006" data-link-type="crowfoot" data-source-line="69" id="lnk12"><path codeLine="69" d="M651.21,273.98 C651.21,296.36 651.21,307.91 651.21,333.51" fill="none" id="seasons-episodes" style="stroke:#E7E7E7;stroke-width:1;"/><line style="stroke:#E7E7E7;stroke-width:1;" x1="647.21" x2="655.21" y1="269.98" y2="269.98"/><line style="stroke:#E7E7E7;stroke-width:1;" x1="647.21" x2="655.21" y1="272.98" y2="272.98"/><line style="stroke:#E7E7E7;stroke-width:1;" x1="651.21" x2="651.21" y1="273.98" y2="265.98"/><line style="stroke:#E7E7E7;stroke-width:1;" x1="651.21" x2="657.21" y1="333.51" y2="341.51"/><line style="stroke:#E7E7E7;stroke-width:1;" x1="651.21" x2="645.21" y1="333.51" y2="341.51"/><line style="stroke:#E7E7E7;stroke-width:1;" x1="651.21" x2="651.21" y1="333.51" y2="341.51"/><line style="stroke:#E7E7E7;stroke-width:1;" x1="655.21" x2="647.21" y1="331.51" y2="331.51"/></g><!--link program_slot_episodes to program_slots--><g class="link" data-entity-1="ent0007" data-entity-2="ent0003" data-link-type="crowfoot" data-source-line="71" id="lnk13"><path codeLine="71" d="M336.89,290.28 C336.89,317.13 336.89,332.23 336.89,358.09" fill="none" id="program_slot_episodes-program_slots" style="stroke:#E7E7E7;stroke-width:1;"/><line style="stroke:#E7E7E7;stroke-width:1;" x1="336.89" x2="330.89" y1="290.28" y2="282.28"/><line style="stroke:#E7E7E7;stroke-width:1;" x1="336.89" x2="342.89" y1="290.28" y2="282.28"/><line style="stroke:#E7E7E7;stroke-width:1;" x1="336.89" x2="336.89" y1="290.28" y2="282.28"/><line style="stroke:#E7E7E7;stroke-width:1;" x1="332.89" x2="340.89" y1="292.28" y2="292.28"/><line style="stroke:#E7E7E7;stroke-width:1;" x1="340.89" x2="332.89" y1="362.09" y2="362.09"/><line style="stroke:#E7E7E7;stroke-width:1;" x1="340.89" x2="332.89" y1="359.09" y2="359.09"/><line style="stroke:#E7E7E7;stroke-width:1;" x1="336.89" x2="336.89" y1="358.09" y2="366.09"/></g><!--link program_slot_episodes to episodes--><g class="link" data-entity-1="ent0007" data-entity-2="ent0006" data-link-type="crowfoot" data-source-line="72" id="lnk14"><path codeLine="72" d="M522.65,290.28 C522.65,309.1 522.65,314 522.65,333.73" fill="none" id="program_slot_episodes-episodes" style="stroke:#E7E7E7;stroke-width:1;"/><line style="stroke:#E7E7E7;stroke-width:1;" x1="522.65" x2="516.65" y1="290.28" y2="282.28"/><line style="stroke:#E7E7E7;stroke-width:1;" x1="522.65" x2="528.65" y1="290.28" y2="282.28"/><line style="stroke:#E7E7E7;stroke-width:1;" x1="522.65" x2="522.65" y1="290.28" y2="282.28"/><line style="stroke:#E7E7E7;stroke-width:1;" x1="518.65" x2="526.65" y1="292.28" y2="292.28"/><line style="stroke:#E7E7E7;stroke-width:1;" x1="526.65" x2="518.65" y1="337.73" y2="337.73"/><line style="stroke:#E7E7E7;stroke-width:1;" x1="526.65" x2="518.65" y1="334.73" y2="334.73"/><line style="stroke:#E7E7E7;stroke-width:1;" x1="522.65" x2="522.65" y1="333.73" y2="341.73"/></g><!--link programs to program_genres--><g class="link" data-entity-1="ent0004" data-entity-2="ent0009" data-link-type="crowfoot" data-source-line="74" id="lnk15"><path codeLine="74" d="M865.47,94.34 C884.16,94.34 889.56,94.34 889.56,94.34 C889.56,94.34 889.56,130.38 889.56,166.33" fill="none" id="programs-program_genres" style="stroke:#E7E7E7;stroke-width:1;"/><line style="stroke:#E7E7E7;stroke-width:1;" x1="861.47" x2="861.47" y1="98.34" y2="90.34"/><line style="stroke:#E7E7E7;stroke-width:1;" x1="864.47" x2="864.47" y1="98.34" y2="90.34"/><line style="stroke:#E7E7E7;stroke-width:1;" x1="865.47" x2="857.47" y1="94.34" y2="94.34"/><line style="stroke:#E7E7E7;stroke-width:1;" x1="889.56" x2="895.56" y1="166.33" y2="174.33"/><line style="stroke:#E7E7E7;stroke-width:1;" x1="889.56" x2="883.56" y1="166.33" y2="174.33"/><line style="stroke:#E7E7E7;stroke-width:1;" x1="889.56" x2="889.56" y1="166.33" y2="174.33"/><line style="stroke:#E7E7E7;stroke-width:1;" x1="893.56" x2="885.56" y1="164.33" y2="164.33"/></g><!--link genres to program_genres--><g class="link" data-entity-1="ent0008" data-entity-2="ent0009" data-link-type="crowfoot" data-source-line="75" id="lnk16"><path codeLine="75" d="M1010.32,98.18 C1010.32,123.06 1010.32,139.85 1010.32,166.26" fill="none" id="genres-program_genres" style="stroke:#E7E7E7;stroke-width:1;"/><line style="stroke:#E7E7E7;stroke-width:1;" x1="1006.32" x2="1014.32" y1="94.18" y2="94.18"/><line style="stroke:#E7E7E7;stroke-width:1;" x1="1006.32" x2="1014.32" y1="97.18" y2="97.18"/><line style="stroke:#E7E7E7;stroke-width:1;" x1="1010.32" x2="1010.32" y1="98.18" y2="90.18"/><line style="stroke:#E7E7E7;stroke-width:1;" x1="1010.32" x2="1016.32" y1="166.26" y2="174.26"/><line style="stroke:#E7E7E7;stroke-width:1;" x1="1010.32" x2="1004.32" y1="166.26" y2="174.26"/><line style="stroke:#E7E7E7;stroke-width:1;" x1="1010.32" x2="1010.32" y1="166.26" y2="174.26"/><line style="stroke:#E7E7E7;stroke-width:1;" x1="1014.32" x2="1006.32" y1="164.26" y2="164.26"/></g><?plantuml-src ZLGzJnmn4EtzAqOqGAIJ418D0aeQ6lx1okoExgpisITxE40S1RSqAT8bRHI91YLbX195vDTO2dy3xwwzxCSTvehLUVnsthoPDpiH6K8gT9eZCn-5d77Dfv0BYNGrGr2Q9eenb2Je2ZPiSMkBUrlyiiLdM_pS06uWdN0fCJTmpG0--5CYCjY7Cp4MahPsTxRXuE3qvEZ88KOZzmWeoQVeS7EkNKHlxUxjRRERLxhdhp-U7-_-V_jU4Ssq6hlY4fChycpjK8JI4DUKS7AOZ1EIcAABeim6iVKIZijyW_hQnVNgUhiaboGVo8T6PuR4XUlhFX1UKflNBd_Ruiak_xf9LEm6kL7IazU7M3iga4EuwnPdNBDTFjZYYrt-AoieFbNqE1D6PUZv_IbIG42bwbnIKyUQbWHmhoK0SsTVbMJdcfEevFWPQioTGFU26wkVRYFwtODrnajMoUsuhgjzrLMa4MTQyIpbXfBQegM2hY7d0YzwVOeO_xZElxw0uLJ_XCMkjtgCKWTHrV-8YXhphdrE1cH1JPkq4ukGHzmRgblVXaquB7-bRIeZcVhCcc_ROZ4QBQwxdo36cgNtrtuDMLZ740yUQTxeMUUcX2rwsT-43Z8EIgnxoNnBOVNr2m00?></g></svg>